<svg width="49" height="49" viewBox="0 0 49 49" fill="none" xmlns="http://www.w3.org/2000/svg">
<circle cx="24.5" cy="24.5" r="24.5" fill="#278EFF"/>
<path fill-rule="evenodd" clip-rule="evenodd" d="M19.1216 23.7631C18.5682 21.2671 16.7769 19.3797 18.6415 15.2964C20.3677 11.5159 24.493 9.76898 28.0852 10.0244C31.8273 10.2909 35.0551 12.739 36.3281 15.6956C38.6901 21.1818 34.088 28.0132 33.7673 28.4762C33.411 28.9909 32.8813 29.6576 32.4069 30.7925C31.4048 33.1879 32.0564 34.2988 31.1263 35.9844C30.9745 36.2595 29.9647 38.027 28.0051 38.5408C25.6978 39.1461 22.7648 37.832 21.9226 35.4256C21.3555 33.8042 21.0283 31.3335 20.6871 29.9687" fill="#FDBA91"/>
<path d="M28.2817 12.5313C25.0037 11.8882 19.1026 15.9821 21.2503 19.5625C22.3163 21.3397 25.0972 21.4296 25.1877 23.5C25.2809 25.6306 23.219 25.1875 22.9377 27.1562C22.5971 29.5409 24.503 30.9499 26.8752 30.5312C31.6565 29.6875 33.5522 25.0139 33.6252 20.6875C33.6855 17.1104 31.7924 13.2201 28.2817 12.5313Z" fill="#DF845E"/>
<path d="M15 20L10 19M16 25L9 27M17.5 29L13.5 33" stroke="white" stroke-linecap="round"/>
<path d="M29.9999 22C27.4999 22.5 23.9998 22.5 21.9999 20.5C20.0001 18.5 20.7803 16.5248 22.0001 15C24 12.5 27.4999 12.5 27.4999 12.5" stroke="black" stroke-width="0.5" stroke-linecap="round"/>
<path d="M25 24.5C25 24.5 23 25.8575 23 28C23 29 23.4592 30.2085 25.5 30.5C29 31 32 28 33 24C34.1504 19.3982 32 15 32 15" stroke="black" stroke-width="0.5" stroke-linecap="round"/>
<path d="M18.0001 19.4999C17.5 12.4999 24.4932 9.7689 28.0854 10.0243C31.8275 10.2908 35.0553 12.7389 36.3283 15.6955C38.6903 21.1817 34.0882 28.0131 33.7675 28.4761C33.4112 28.9909 32.8815 29.6575 32.4071 30.7924C31.405 33.1878 32.0566 34.2987 31.1265 35.9843C30.9747 36.2594 29.9649 38.0269 28.0053 38.5407C25.698 39.146 22.765 37.8319 21.9228 35.4255C21.3557 33.8041 21.0285 31.3335 20.6873 29.9686" stroke="black" stroke-width="0.5" stroke-linecap="round"/>
<path d="M28.2817 12.5312C25.0037 11.8881 19.1026 15.982 21.2503 19.5624C22.3163 21.3395 25.0972 21.4295 25.1877 23.4999C25.2809 25.6305 23.219 25.1874 22.9377 27.1561C22.5971 29.5408 24.503 30.9497 26.8752 30.5311C31.6565 29.6874 33.5522 25.0138 33.6252 20.6874C33.6855 17.1103 31.7924 13.22 28.2817 12.5312Z" fill="#DF845E"/>
<path d="M15 19.9999L10 18.9999M16 24.9999L9 26.9999M17.5 28.9999L13.5 32.9999" stroke="white" stroke-linecap="round"/>
<path d="M29.9999 21.9999C27.4999 22.4999 23.9998 22.4999 21.9999 20.4999C20.0001 18.4999 20.7803 16.5246 22.0001 14.9999C24 12.4999 27.4999 12.4999 27.4999 12.4999" stroke="black" stroke-width="0.5" stroke-linecap="round"/>
<path d="M25 24.4999C25 24.4999 23 25.8574 23 27.9999C23 28.9999 23.4592 30.2083 25.5 30.4999C29 30.9999 32 27.9999 33 23.9999C34.1504 19.3981 32 14.9999 32 14.9999" stroke="black" stroke-width="0.5" stroke-linecap="round"/>
</svg>
