<svg width="49" height="49" viewBox="0 0 49 49" fill="none" xmlns="http://www.w3.org/2000/svg">
<circle cx="24.5" cy="24.5" r="24.5" fill="#B9202F"/>
<path d="M18.5247 27.8578C15.9393 24.2379 17.4907 22.1694 17.4907 22.1694L24.2131 15.9639C24.2131 15.9639 25.9462 14.0772 29.9015 18.0324C33.0042 21.1352 30.4188 25.7893 30.4188 25.7893L23.6964 30.4434C23.6964 30.4434 21.2131 31.6216 18.5247 27.8578Z" fill="#C93A48"/>
<path fill-rule="evenodd" clip-rule="evenodd" d="M11.0265 15.8151L16.3137 19.2511C17.0061 19.7011 17.3152 20.5382 17.3885 21.3607C17.4433 21.9749 17.6314 22.7101 18.1261 23.394C18.9191 24.4902 20.6349 25.6399 22.1422 24.8921C22.8241 24.5537 23.3289 23.8937 23.5634 23.0881C23.8528 22.0935 24.4038 21.0007 25.1486 20.2808C26.0162 19.4423 26.7524 18.2857 26.7989 17.5153C26.9 15.8541 25.2953 14.8076 24.2133 14.4126C23.1358 14.0193 21.8533 14.598 20.9648 15.1462C20.2873 15.5643 19.4589 15.629 18.7841 15.2067C16.9915 14.0849 15.1991 12.9632 13.4062 11.841" fill="white"/>
<path d="M11.0265 15.8151L16.3137 19.2511C17.0061 19.7011 17.3152 20.5382 17.3885 21.3607C17.4433 21.9749 17.6314 22.7101 18.1261 23.394C18.9191 24.4902 20.6349 25.6399 22.1422 24.8921C22.8241 24.5537 23.3289 23.8937 23.5634 23.0881C23.8528 22.0935 24.4038 21.0007 25.1486 20.2808C26.0162 19.4423 26.7524 18.2857 26.7989 17.5153C26.9 15.8541 25.2953 14.8076 24.2133 14.4126C23.1358 14.0193 21.8533 14.598 20.9648 15.1462C20.2873 15.5643 19.4589 15.629 18.7841 15.2067C16.9915 14.0849 15.1991 12.9632 13.4062 11.841" stroke="black" stroke-width="0.5" stroke-linecap="round" stroke-linejoin="round"/>
<path fill-rule="evenodd" clip-rule="evenodd" d="M35.3165 35.0404L31.2168 30.3933C30.6644 29.7672 30.5975 28.8659 30.7526 28.0455C30.8647 27.4531 30.8818 26.7176 30.6012 25.9502C30.1434 24.6977 28.8155 23.1479 27.1619 23.4562C26.4152 23.5953 25.7492 24.0858 25.3014 24.7861C24.7466 25.6537 23.8849 26.4385 22.9996 26.9648C22.4288 27.3041 21.9889 27.8071 21.7721 28.4113C21.2157 29.9619 22.385 31.4664 23.314 32.1301C24.0512 32.6568 24.8424 32.8006 25.4894 32.7998C26.3115 32.7987 27.1775 33.0062 27.7057 33.6362C28.9813 35.1575 30.2569 36.6787 31.5325 38.2002" fill="white"/>
<path d="M35.3165 35.0404L31.2168 30.3933C30.6644 29.7672 30.5975 28.8659 30.7526 28.0455C30.8647 27.4531 30.8818 26.7176 30.6012 25.9502C30.1434 24.6977 28.8155 23.1479 27.1619 23.4562C26.4152 23.5953 25.7492 24.0858 25.3014 24.7861C24.7466 25.6537 23.8849 26.4385 22.9996 26.9648C22.4288 27.3041 21.9889 27.8071 21.7721 28.4113C21.2157 29.9619 22.385 31.4664 23.314 32.1301C24.0512 32.6568 24.8424 32.8006 25.4894 32.7998C26.3115 32.7987 27.1775 33.0062 27.7057 33.6362C28.9813 35.1575 30.2569 36.6787 31.5325 38.2002" stroke="black" stroke-width="0.5" stroke-linecap="round" stroke-linejoin="round"/>
<circle cx="24.5" cy="24.5" r="24.5" fill="#278EFF"/>
<path d="M14.5 12.5L17.4627 21.059C18.3328 23.5726 20.9787 25.0053 23.5592 24.3602V24.3602C26.4832 23.6292 28.1514 20.5485 27.1655 17.7003L24.5 10" stroke="#24303F" stroke-width="3"/>
<path d="M12 13.5L26.5 9" stroke="white" stroke-width="3" stroke-linecap="round"/>
<path d="M25.5 28.5L30 41" stroke="white" stroke-width="3"/>
<path d="M27.5 26C27.5 27.6569 26.1569 29 24.5 29C22.8431 29 21.5 27.6569 21.5 26C21.5 24.3431 22.8431 23 24.5 23C26.1569 23 27.5 24.3431 27.5 26Z" fill="#24303F"/>
<path d="M28.5 41.5L31.5 40.5" stroke="#24303F" stroke-width="3" stroke-linecap="round"/>
<path d="M13.592 14.6937L15.5 20.5C16 22.1667 17.9 25.6 21.5 26M10.5 13.5C10.5 14.1667 10.9 15.4 12.5 15C14.1 14.6 22.8333 11.8333 27 10.5M27 24C28 25 28.5 29 24 29M27 28L31 39M31 39L28 40M31 39C32 39 32.6 39.3 33 40.5" stroke="black" stroke-width="0.5" stroke-linecap="round"/>
</svg>
