<svg width="49" height="49" viewBox="0 0 49 49" fill="none" xmlns="http://www.w3.org/2000/svg">
<circle cx="24.5" cy="24.5" r="24.5" fill="#278EFF"/>
<path d="M25.5865 38C25.0864 35.5 24.5864 34 23.0865 32C23.0865 32 20.0864 33.5 17.5865 31.5C16.1787 30.3738 16.5865 28 16.5865 28C16.5865 28 14.5286 29.0817 13.0864 28C11.0864 26.5 12.0865 24.5 12.0865 24.5C12.0865 24.5 11.0865 24.3254 11.0865 23.5C11.0865 22.6746 12.0865 22.5 12.0865 22.5C12.0865 22.5 10.637 21.5 11.0865 20C11.5865 18.3311 13.5865 18.5 13.5865 18.5C13.5865 18.5 13.9752 17.3493 14.5865 17C15.2646 16.6125 16.5865 17 16.5865 17C16.5865 17 16.469 16.1175 17.0865 15.5C18.0865 14.5 19.5865 15.5 19.5865 15.5C19.5865 15.5 20.0865 13.5 23.0865 13.5C26.0865 13.5 27.0865 15 27.0865 15C27.0865 15 27.7655 14.0596 29.0865 14.5C30.4075 14.9403 30.0865 16 30.0865 16C30.0865 16 31.5412 15.2274 33.0865 16C35.0865 17 34.5865 19 34.5865 19C34.5865 19 35.7059 18.8258 36.5865 20C38.0865 22 36.5865 23.5 36.5865 23.5C36.5865 23.5 39.0865 24.5 38.5865 28.5C38.0865 32.5 34.5865 32.5 34.5865 32.5C34.5865 32.5 34.5865 35 32.5865 35.5C29.3325 36.3135 27.5865 34.5 27.5865 34.5L28.0864 38H25.5865Z" fill="#FC908F"/>
<path d="M30.5 28.5C30.5 28.5 31.5 30 33 30M33 30C34.5 30 35 29 35 29M33 30C32.5 30.5 33 31.5 33 31.5" stroke="black" stroke-width="0.5" stroke-linecap="round"/>
<path d="M16 25C16 25 17.5 24.5 18.5 25.5M18.5 25.5C19.2897 26.2897 19.5 28 19.5 28M18.5 25.5C23 24 21.5 20.5 21.5 20.5" stroke="black" stroke-width="0.5" stroke-linecap="round"/>
<path d="M27.0865 15C27.0865 15 27.7654 14.0596 29.0865 14.5C30.4075 14.9403 30.0865 16 30.0865 16C30.0865 16 31.5412 15.2273 33.0865 16C35.0865 17 34.5865 19 34.5865 19C34.5865 19 35.7058 18.8258 36.5865 20C38.0865 22 36.5865 23.5 36.5865 23.5C36.5865 23.5 39.0865 24.5 38.5865 28.5C38.0865 32.5 34.5865 32.5 34.5865 32.5C34.5865 32.5 34.5865 35 32.5865 35.5C29.3325 36.3134 27.5865 34.5 27.5865 34.5L28.0864 38H25.5865C25.0864 35.5 24.5864 34 23.0865 32C23.0865 32 20.0864 33.5 17.5865 31.5M17.0865 15.5C16.469 16.1174 16.5865 17 16.5865 17C16.5865 17 15.2646 16.6124 14.5865 17C13.9752 17.3492 13.5865 18.5 13.5865 18.5C13.5865 18.5 11.5865 18.3311 11.0865 20C10.637 21.5 12.0865 22.5 12.0865 22.5C12.0865 22.5 11.0865 22.6746 11.0865 23.5C11.0865 24.3253 12.0865 24.5 12.0865 24.5C12.0865 24.5 11.0864 26.5 13.0864 28" stroke="black" stroke-width="0.5" stroke-linecap="round" stroke-linejoin="round"/>
<path d="M36.5 23.5C36.5 23.5 36 23.061 34.5 23.4999C33.563 23.7741 32.5 24.9999 32.5 24.9999" stroke="black" stroke-width="0.5" stroke-linecap="round"/>
<path d="M24.5 27C24.5 27 25.5 28 25 30C24.6508 31.3969 23 32 23 32" stroke="black" stroke-width="0.5" stroke-linecap="round"/>
</svg>
