<svg width="49" height="49" viewBox="0 0 49 49" fill="none" xmlns="http://www.w3.org/2000/svg">
<circle cx="24.5" cy="24.5" r="24.5" fill="#278EFF"/>
<path d="M31.9605 33.4855C31.406 36.1692 33.0694 41 33.0694 41H22.5347C22.5347 41 21.8588 39.1547 21.4258 38.3162C20.8713 37.2427 19.7624 37.7795 19.7624 37.7795L17.7297 38.6541C16.4377 39.2099 15.037 38.1328 15.2423 36.7415C15.2937 36.393 15.1367 36.0466 14.8407 35.8556L14.411 35.5783C14.0833 35.3667 14.1132 34.878 14.4643 34.7081L14.7723 34.559L14.0627 34.2156C13.8349 34.1053 13.7254 33.8421 13.8078 33.6028L14.0734 32.8315C14.1558 32.5922 14.0463 32.329 13.8185 32.2187L13.1103 31.8759C12.5383 31.599 12.3663 30.8658 12.7555 30.3634L14.7782 27.7525C15.0904 27.3495 15.0495 26.7762 14.6833 26.4216L14.5681 26.3102C14.1056 25.8624 14.1739 25.0631 14.4944 24.5047C15.3419 23.0284 15.5502 20.6099 17.1306 19.1973C19.7974 16.8137 24.9278 16.6548 28.6337 17.3832C32.3396 18.1115 35 22.2138 35 25.6383C35 29.492 32.5149 30.8018 31.9605 33.4855Z" fill="#FDBA91"/>
<path d="M33.0694 41C33.0694 41 31.5169 35.6324 31.9605 33.4854C32.4041 31.3385 33.5 30.4999 34.5 28.4999M17.1306 19.1973C15.5502 20.6099 15.3419 23.0283 14.4944 24.5047C14.1739 25.063 14.1056 25.8623 14.5681 26.3101L14.6833 26.4216C15.0495 26.7761 15.0904 27.3495 14.7782 27.7525L12.7555 30.3633C12.3663 30.8657 12.5383 31.599 13.1103 31.8759L13.8185 32.2186C14.0463 32.3289 14.1558 32.5921 14.0734 32.8315L13.8078 33.6027C13.7254 33.8421 13.8349 34.1053 14.0627 34.2156L14.7723 34.559L14.4643 34.708C14.1132 34.878 14.0833 35.3667 14.411 35.5782L14.8407 35.8555C15.1367 36.0465 15.2937 36.3929 15.2423 36.7414V36.7414C15.037 38.1328 16.4377 39.2099 17.7297 38.654L19.7624 37.7795C19.7624 37.7795 20.8713 37.2427 21.4258 38.3162C21.8588 39.1546 22.5347 41 22.5347 41" stroke="black" stroke-width="0.5" stroke-linecap="round" stroke-linejoin="round"/>
<path d="M37.3559 22.7983C37.7106 22.7983 38 22.511 38 22.1539V20.8428C38 20.4874 37.7122 20.1988 37.3559 20.1988H36.631C36.631 20.1984 36.631 20.198 36.6293 20.1964C36.5026 19.6948 36.3036 19.2217 36.0439 18.7887L36.5488 18.283C36.7994 18.0316 36.7994 17.6242 36.5488 17.3728L35.6215 16.4456C35.5006 16.3247 35.3367 16.257 35.1657 16.257C34.9956 16.257 34.8305 16.3251 34.7104 16.446L34.2054 16.9509C33.7765 16.6937 33.3071 16.4952 32.8096 16.368C32.8079 16.3676 32.8046 15.9953 32.8013 15.6394C32.8001 15.2857 32.5131 15 32.1581 15H30.8473C30.6755 15 30.5112 15.0685 30.3902 15.1903C30.2693 15.3121 30.202 15.4776 30.2036 15.6489L30.2098 16.3532C29.6962 16.4621 29.212 16.6834 28.7685 16.9484L28.2669 16.4456C28.1464 16.3247 27.9825 16.257 27.8115 16.257C27.6406 16.257 27.4767 16.3251 27.3562 16.4456L26.4277 17.3736C26.1766 17.625 26.1762 18.0325 26.4277 18.2838L26.9326 18.7887C26.6741 19.2222 26.4751 19.6948 26.348 20.1964C26.3476 20.198 26.3476 20.1984 26.3467 20.1988H25.6441C25.2886 20.1988 25 20.487 25 20.8428V22.1551C25 22.5105 25.2882 22.7999 25.6441 22.7999H26.3434C26.3372 22.7743 26.3323 22.7508 26.3261 22.724C26.3323 22.7483 26.3372 22.7727 26.3434 22.7966C26.4706 23.3048 26.6708 23.7849 26.9334 24.2228L26.4289 24.7269C26.3079 24.847 26.2402 25.0109 26.2402 25.1826C26.2402 25.3543 26.3079 25.5174 26.4289 25.6384L27.3566 26.5663C27.4771 26.6865 27.6406 26.755 27.8115 26.755C27.9821 26.755 28.1464 26.6865 28.2669 26.5663L28.771 26.0615C29.2132 26.3261 29.6979 26.5284 30.2111 26.6551L30.2053 27.3511C30.2036 27.5228 30.2709 27.6879 30.3919 27.8097C30.5129 27.9315 30.6772 28 30.8489 28H32.1602C32.5131 28 32.8013 27.7148 32.8042 27.3602C32.8067 27.0089 32.8092 26.6452 32.8121 26.6448C33.3091 26.5168 33.7781 26.3191 34.2071 26.0627L34.712 26.5667C34.9634 26.8177 35.3718 26.8177 35.6224 26.5667L36.5496 25.6408C36.7998 25.3894 36.8007 24.9816 36.5496 24.7298L36.0443 24.2245C36.3077 23.7861 36.5071 23.3064 36.6359 22.7983C36.6425 22.7739 36.6425 22.7756 36.6359 22.8016H37.3576L37.3559 22.7983ZM31.4893 23.3151C30.4897 23.3151 29.6793 22.5039 29.6793 21.505C29.6793 20.5064 30.4897 19.6948 31.4893 19.6948C32.4888 19.6948 33.2992 20.5056 33.2992 21.505C33.2992 22.5048 32.4888 23.3151 31.4893 23.3151Z" fill="white"/>
<path d="M36.5488 18.283C36.7994 18.0316 36.7994 17.6242 36.5488 17.3728L35.6215 16.4456C35.5006 16.3247 35.3367 16.257 35.1657 16.257C34.9956 16.257 34.8305 16.3251 34.7104 16.446L34.2054 16.9509C33.7765 16.6937 33.3071 16.4952 32.8096 16.368C32.8096 16.368 32.8046 15.9953 32.8013 15.6394C32.8001 15.2857 32.5131 15 32.1581 15H30.8473C30.6755 15 30.5112 15.0685 30.3902 15.1903C30.2693 15.3121 30.202 15.4776 30.2036 15.6489L30.2098 16.3532C29.6962 16.4621 29.212 16.6834 28.7685 16.9484L28.2669 16.4456C28.1464 16.3247 27.9825 16.257 27.8115 16.257C27.6406 16.257 27.4767 16.3251 27.3562 16.4456L26.4277 17.3736C26.1766 17.625 26.1762 18.0325 26.4277 18.2838L26.9326 18.7887C26.6741 19.2222 26.4751 19.6948 26.348 20.1964L26.3467 20.1988H25.6441C25.2886 20.1988 25 20.487 25 20.8428V22.1551C25 22.5105 25.2882 22.7999 25.6441 22.7999H26.3434C26.3372 22.7743 26.3323 22.7508 26.3261 22.724C26.3323 22.7483 26.3372 22.7727 26.3434 22.7966C26.4706 23.3048 26.6708 23.7849 26.9334 24.2228L26.4289 24.7269C26.3079 24.847 26.2402 25.0109 26.2402 25.1826C26.2402 25.3543 26.3079 25.5174 26.4289 25.6384L27.3566 26.5663C27.4771 26.6865 27.6406 26.755 27.8115 26.755C27.9821 26.755 28.1464 26.6865 28.2669 26.5663L28.771 26.0615C29.2132 26.3261 29.6979 26.5284 30.2111 26.6551L30.2053 27.3511C30.2036 27.5228 30.2709 27.6879 30.3919 27.8097C30.5129 27.9315 30.6772 28 30.8489 28H32.1602C32.5131 28 32.8013 27.7148 32.8042 27.3602C32.8067 27.0089 32.8092 26.6452 32.8121 26.6448C33.3091 26.5168 33.7781 26.3191 34.2071 26.0627L34.712 26.5667C34.9634 26.8177 35.3718 26.8177 35.6224 26.5667L36.5496 25.6408C36.7998 25.3894 36.8007 24.9816 36.5496 24.7298L36.0443 24.2245C36.3077 23.7861 36.5071 23.3064 36.6359 22.7983C36.6425 22.7739 36.6425 22.7756 36.6359 22.8016M29.6793 21.505C29.6793 22.5039 30.4897 23.3151 31.4893 23.3151C32.4888 23.3151 33.2992 22.5048 33.2992 21.505" stroke="black" stroke-width="0.5" stroke-linecap="round"/>
<path d="M25.5541 16.3988C25.7996 16.3988 26 16.1999 26 15.9527V15.045C26 14.799 25.8008 14.5992 25.5541 14.5992H25.0522C25.0522 14.5989 25.0522 14.5986 25.0511 14.5975C24.9633 14.2503 24.8256 13.9227 24.6458 13.623L24.9953 13.2729C25.1688 13.0988 25.1688 12.8167 24.9953 12.6427L24.3534 12.0008C24.2696 11.9171 24.1562 11.8702 24.0378 11.8702C23.9201 11.8702 23.8057 11.9174 23.7226 12.0011L23.373 12.3506C23.076 12.1726 22.751 12.0351 22.4066 11.9471C22.4055 11.9468 22.4032 11.689 22.4009 11.4427C22.4001 11.1978 22.2014 11 21.9556 11H21.0481C20.9292 11 20.8155 11.0474 20.7317 11.1317C20.648 11.2161 20.6014 11.3307 20.6025 11.4493L20.6068 11.9368C20.2512 12.0123 19.916 12.1654 19.609 12.3489L19.2617 12.0008C19.1783 11.9171 19.0648 11.8702 18.9465 11.8702C18.8281 11.8702 18.7147 11.9174 18.6312 12.0008L17.9884 12.6433C17.8146 12.8173 17.8143 13.0994 17.9884 13.2734L18.3379 13.623C18.159 13.923 18.0212 14.2503 17.9332 14.5975C17.9329 14.5986 17.9329 14.5989 17.9324 14.5992H17.4459C17.1998 14.5992 17 14.7987 17 15.045V15.9535C17 16.1996 17.1995 16.3999 17.4459 16.3999H17.9301C17.9258 16.3822 17.9224 16.3659 17.9181 16.3474C17.9224 16.3642 17.9258 16.3811 17.9301 16.3977C18.0181 16.7495 18.1567 17.0818 18.3385 17.385L17.9892 17.734C17.9055 17.8172 17.8586 17.9306 17.8586 18.0495C17.8586 18.1684 17.9055 18.2813 17.9892 18.365L18.6315 19.0075C18.7149 19.0906 18.8281 19.1381 18.9465 19.1381C19.0645 19.1381 19.1783 19.0906 19.2617 19.0075L19.6107 18.6579C19.9168 18.8411 20.2524 18.9812 20.6077 19.0689L20.6037 19.5507C20.6025 19.6696 20.6491 19.7839 20.7329 19.8683C20.8166 19.9526 20.9304 20 21.0493 20H21.957C22.2014 20 22.4009 19.8025 22.4029 19.557C22.4046 19.3138 22.4063 19.062 22.4083 19.0618C22.7525 18.9732 23.0772 18.8363 23.3741 18.6588L23.7237 19.0077C23.8978 19.1815 24.1804 19.1815 24.3539 19.0077L24.9959 18.3667C25.1691 18.1927 25.1697 17.9103 24.9959 17.736L24.6461 17.3862C24.8284 17.0827 24.9665 16.7506 25.0556 16.3988C25.0602 16.3819 25.0602 16.3831 25.0556 16.4011H25.5553L25.5541 16.3988ZM21.4926 16.7566C20.8006 16.7566 20.2395 16.195 20.2395 15.5034C20.2395 14.8121 20.8006 14.2503 21.4926 14.2503C22.1845 14.2503 22.7456 14.8115 22.7456 15.5034C22.7456 16.1956 22.1845 16.7566 21.4926 16.7566Z" fill="white"/>
<path d="M19.6088 12.3489C19.9158 12.1654 20.251 12.0123 20.6066 11.9368L20.6023 11.4493C20.6012 11.3307 20.6477 11.2161 20.7315 11.1317C20.8152 11.0474 20.929 11 21.0479 11H21.9554C22.2012 11 22.3998 11.1978 22.4007 11.4427C22.403 11.689 22.4064 11.9471 22.4064 11.9471C22.7508 12.0351 23.0758 12.1726 23.3728 12.3506L23.7223 12.0011C23.8055 11.9174 23.9198 11.8702 24.0376 11.8702C24.1559 11.8702 24.2694 11.9171 24.3532 12.0008L24.9951 12.6427C25.1686 12.8167 25.1686 13.0988 24.9951 13.2729L24.6456 13.623C24.8253 13.9227 24.9631 14.2503 25.0509 14.5975L25.052 14.5992H25.5539C25.8006 14.5992 25.9998 14.799 25.9998 15.045V15.9527C25.9998 16.1999 25.7994 16.3988 25.5539 16.3988L25.555 16.4011H25.0554C25.06 16.3831 25.06 16.3819 25.0554 16.3988C24.9662 16.7506 24.8282 17.0827 24.6458 17.3862L24.9957 17.736C25.1695 17.9103 25.1689 18.1927 24.9957 18.3667L24.3537 19.0077C24.1802 19.1815 23.8976 19.1815 23.7235 19.0077L23.3739 18.6588C23.077 18.8363 22.7523 18.9732 22.4081 19.0618C22.4061 19.062 22.4044 19.3138 22.4027 19.557C22.4007 19.8025 22.2012 20 21.9568 20H21.049C20.9301 20 20.8164 19.9526 20.7326 19.8683C20.6489 19.7839 20.6023 19.6696 20.6034 19.5507L20.6074 19.0689C20.2522 18.9812 19.9166 18.8411 19.6105 18.6579L19.2615 19.0075C19.178 19.0906 19.0643 19.1381 18.9462 19.1381C18.8279 19.1381 18.7147 19.0906 18.6313 19.0075L17.989 18.365C17.9053 18.2813 17.8584 18.1684 17.8584 18.0495C17.8584 17.9306 17.9053 17.8172 17.989 17.734M20.2393 15.5034C20.2393 14.8121 20.8004 14.2503 21.4924 14.2503C22.1843 14.2503 22.7454 14.8115 22.7454 15.5034" stroke="black" stroke-width="0.5" stroke-linecap="round"/>
<path d="M31.7027 12.5992C31.8664 12.5992 32 12.4666 32 12.3018V11.6967C32 11.5326 31.8672 11.3995 31.7027 11.3995H31.3681C31.3681 11.3993 31.3681 11.3991 31.3674 11.3983C31.3089 11.1668 31.217 10.9485 31.0972 10.7486L31.3302 10.5152C31.4459 10.3992 31.4459 10.2112 31.3302 10.0951L30.9022 9.66722C30.8464 9.61139 30.7708 9.58015 30.6919 9.58015C30.6134 9.58015 30.5372 9.61158 30.4817 9.66741L30.2487 9.90042C30.0507 9.78172 29.834 9.69008 29.6044 9.6314C29.6037 9.63121 29.6021 9.45935 29.6006 9.29512C29.6 9.13184 29.4676 9 29.3037 9H28.6987C28.6195 9 28.5436 9.03163 28.4878 9.08783C28.432 9.14404 28.4009 9.22044 28.4017 9.2995L28.4045 9.62454C28.1675 9.67484 27.944 9.77696 27.7393 9.89928L27.5078 9.66722C27.4522 9.61139 27.3765 9.58015 27.2976 9.58015C27.2188 9.58015 27.1431 9.61158 27.0875 9.66722L26.6589 10.0955C26.5431 10.2115 26.5429 10.3996 26.6589 10.5156L26.892 10.7486C26.7727 10.9487 26.6808 11.1668 26.6221 11.3983C26.622 11.3991 26.622 11.3993 26.6216 11.3995H26.2973C26.1332 11.3995 26 11.5325 26 11.6967V12.3024C26 12.4664 26.133 12.6 26.2973 12.6H26.62C26.6172 12.5881 26.6149 12.5773 26.612 12.5649C26.6149 12.5761 26.6172 12.5874 26.62 12.5984C26.6787 12.833 26.7712 13.0546 26.8923 13.2567L26.6595 13.4893C26.6037 13.5448 26.5724 13.6204 26.5724 13.6997C26.5724 13.7789 26.6037 13.8542 26.6595 13.91L27.0877 14.3383C27.1433 14.3938 27.2188 14.4254 27.2976 14.4254C27.3763 14.4254 27.4522 14.3938 27.5078 14.3383L27.7405 14.1053C27.9446 14.2274 28.1683 14.3208 28.4051 14.3793L28.4024 14.7005C28.4017 14.7798 28.4327 14.856 28.4886 14.9122C28.5444 14.9684 28.6202 15 28.6995 15H29.3047C29.4676 15 29.6006 14.8683 29.6019 14.7047C29.6031 14.5426 29.6042 14.3747 29.6056 14.3745C29.835 14.3154 30.0514 14.2242 30.2494 14.1059L30.4825 14.3385C30.5985 14.4543 30.787 14.4543 30.9026 14.3385L31.3306 13.9112C31.4461 13.7951 31.4465 13.6069 31.3306 13.4907L31.0974 13.2575C31.2189 13.0551 31.311 12.8337 31.3704 12.5992C31.3735 12.588 31.3735 12.5887 31.3704 12.6007H31.7035L31.7027 12.5992ZM28.995 12.8377C28.5337 12.8377 28.1597 12.4634 28.1597 12.0023C28.1597 11.5414 28.5337 11.1668 28.995 11.1668C29.4564 11.1668 29.8304 11.541 29.8304 12.0023C29.8304 12.4637 29.4564 12.8377 28.995 12.8377Z" fill="white"/>
<path d="M26.6214 11.3995L26.622 11.3983C26.6807 11.1668 26.7725 10.9487 26.8918 10.7486L26.6587 10.5156C26.5427 10.3996 26.5429 10.2115 26.6587 10.0955L27.0873 9.66722C27.1429 9.61158 27.2186 9.58015 27.2975 9.58015C27.3763 9.58015 27.452 9.61139 27.5076 9.66722L27.7392 9.89928C27.9438 9.77696 28.1673 9.67484 28.4044 9.62454L28.4015 9.2995C28.4007 9.22044 28.4318 9.14404 28.4876 9.08783C28.5435 9.03163 28.6193 9 28.6986 9H29.3036C29.4674 9 29.5999 9.13184 29.6004 9.29512C29.602 9.45935 29.6042 9.6314 29.6042 9.6314C29.8339 9.69008 30.0505 9.78172 30.2485 9.90042L30.4815 9.66741C30.537 9.61158 30.6132 9.58015 30.6917 9.58015C30.7706 9.58015 30.8462 9.61139 30.9021 9.66722L31.33 10.0951C31.4457 10.2112 31.4457 10.3992 31.33 10.5152L31.097 10.7486C31.2169 10.9485 31.3087 11.1668 31.3672 11.3983L31.368 11.3995H31.7026C31.867 11.3995 31.9998 11.5326 31.9998 11.6967V12.3018C31.9998 12.4666 31.8662 12.5992 31.7026 12.5992L31.7033 12.6007H31.3702C31.3733 12.5887 31.3733 12.588 31.3702 12.5992C31.3108 12.8337 31.2188 13.0551 31.0972 13.2575L31.3304 13.4907C31.4463 13.6069 31.4459 13.7951 31.3304 13.9112L30.9025 14.3385C30.7868 14.4543 30.5983 14.4543 30.4823 14.3385L30.2492 14.1059C30.0513 14.2242 29.8348 14.3154 29.6054 14.3745C29.6054 14.3745 29.6029 14.5426 29.6018 14.7047C29.6004 14.8683 29.4674 15 29.3045 15H28.6993C28.6201 15 28.5442 14.9684 28.4884 14.9122C28.4326 14.856 28.4015 14.7798 28.4023 14.7005M28.1595 12.0023C28.1595 12.4634 28.5335 12.8377 28.9949 12.8377C29.4562 12.8377 29.8302 12.4637 29.8302 12.0023" stroke="black" stroke-width="0.3" stroke-linecap="round"/>
</svg>
