<svg width="49" height="49" viewBox="0 0 49 49" fill="none" xmlns="http://www.w3.org/2000/svg">
<circle cx="24.5" cy="24.5" r="24.5" fill="#278EFF"/>
<path d="M22.7701 14.6579C22.8106 12.9961 22.8597 11.5101 22.8597 11.5101C24.2068 10.7019 25.2846 10.9713 26.2275 11.5101L26.2275 14.3516C26.2275 15.2931 27.5418 15.8255 28.3225 15.2993C29.6812 14.3837 31.5558 13.6397 33.502 14.4738C35.9587 15.5267 37.4087 17.1681 37.6782 19.593C38.1523 23.8601 36.7989 27.5422 34.445 30.1007C31.3466 33.4685 27.3305 34.7036 22.4555 34.0074C20.4054 33.7146 17.9609 31.8889 16.3292 30.471C15.6473 29.8783 14.5074 30.3556 14.5074 31.259V35.6239C14.5074 35.6239 13.448 35.8934 12.7561 35.8934C12.0641 35.8934 11.0048 35.6239 11.0048 35.6239V30.1007C11.0048 30.1007 10.7354 26.0592 14.2379 24.8468C17.7842 23.6192 20.2533 27.3314 22.8597 25.7898C24.6181 24.7498 24.9314 23.6 24.8803 21.8831C24.8052 19.3597 22.7087 17.1817 22.7701 14.6579Z" fill="#FACBBD"/>
<path d="M14.2379 24.8468C17.7842 23.6192 20.2533 27.3314 22.8597 25.7898C23.2659 25.5495 24.4331 24.4438 25.4193 24.8468C26.9835 25.4859 25.4193 26.9065 26.6317 27.137C27.3717 27.2776 27.4304 26.3287 28.383 26.3287C29.326 26.3287 28.7871 27.6758 29.9996 27.5411C31.2983 27.3968 30.5384 25.1432 32.155 24.9816C33.7715 24.8199 33.6368 26.3287 34.3104 26.3287C35.0537 26.3287 34.5798 24.5774 35.6575 23.6344C37.0365 22.4278 37.5435 23.7691 37.5435 23.7691C37.5435 23.7691 36.8701 35.2199 22.5903 34.1421C20.5205 33.9859 18.0237 32.0763 16.358 30.5742C15.6781 29.961 14.5074 30.4362 14.5074 31.3517V35.6239C14.5074 35.6239 13.448 35.8933 12.7561 35.8933C12.0641 35.8933 11.0048 35.6239 11.0048 35.6239V30.1006C11.0048 30.1006 10.7354 26.0592 14.2379 24.8468Z" fill="#FFAB91"/>
<path d="M37.6783 20.6707C37.6783 33.738 27.3305 34.7036 22.4555 34.0074C20.4054 33.7146 17.9609 31.8889 16.3292 30.471C15.6473 29.8783 14.5074 30.3556 14.5074 31.259V35.6239C14.5074 35.6239 13.448 35.8934 12.7561 35.8934C12.0641 35.8934 11.0048 35.6239 11.0048 35.6239V30.1007C11.0048 30.1007 10.7354 26.0592 14.2379 24.8468C17.7842 23.6192 20.2533 27.3314 22.8597 25.7898C24.6181 24.7498 24.9314 23.6 24.8803 21.8831V21.8831C24.8052 19.3597 22.7087 17.1817 22.7701 14.6579C22.8106 12.9961 22.8597 11.5101 22.8597 11.5101C24.2068 10.7019 25.2846 10.9713 26.2275 11.5101L26.2275 14.3516C26.2275 15.2931 27.5418 15.8255 28.3225 15.2993C29.6812 14.3837 31.5558 13.6397 33.502 14.4738" stroke="black" stroke-width="0.5" stroke-linecap="round"/>
<path d="M23.8027 25.1163C23.8027 25.1163 24.8705 24.5176 25.4193 24.8468C26.7664 25.6551 25.3842 26.76 26.3623 27.137C27.3065 27.5009 27.44 26.194 28.5177 26.3287C29.3842 26.437 28.9219 27.5411 29.9996 27.5411M37.5436 23.4997C37.5436 23.4997 37.2741 23.0507 36.6006 23.0956C34.5799 23.2303 35.3023 26.3221 34.3104 26.3287C34.0081 26.3307 33.8079 25.9544 33.6369 25.6551C33.098 24.7121 32.155 24.9816 32.155 24.9816" stroke="black" stroke-width="0.5" stroke-linecap="round"/>
</svg>
