<svg width="49" height="49" viewBox="0 0 49 49" fill="none" xmlns="http://www.w3.org/2000/svg">
<circle cx="24.5" cy="24.5" r="24.5" fill="#278EFF"/>
<circle cx="24.4986" cy="24.4986" r="13.4986" fill="#EBF6FF"/>
<path d="M35.1339 16.3176C42.4968 26.9529 33.9068 38.2018 24.4986 37.9973C17.0435 37.9973 11 31.9537 11 24.4986C11 17.0435 17.0435 11 24.4986 11" stroke="black" stroke-width="0.5" stroke-linecap="round"/>
<ellipse cx="16.7267" cy="24.7031" rx="5.72669" ry="8.79456" fill="#BB7C66"/>
<path d="M15.4994 18.5675L16.3175 16.9313M17.7492 20.6127L19.5899 19.7946M18.5673 23.4761H20.6126M18.3628 26.5439L20.408 26.953M17.3402 28.9982L18.7718 30.2254M15.2949 30.2254L15.704 31.8616" stroke="black" stroke-width="0.5" stroke-linecap="round"/>
<path d="M21.2262 29.8162C23.2715 25.9303 21.9334 20.5151 21.073 18.9764C20.0228 17.0983 18.4652 15.9086 16.7267 15.9086C13.5639 15.9086 11 19.846 11 24.7031C11 29.5602 13.5639 33.4977 16.7267 33.4977" stroke="black" stroke-width="0.5" stroke-linecap="round"/>
<ellipse cx="14.2724" cy="24.4987" rx="3.27239" ry="4.90859" fill="#7B4B39"/>
<path d="M17.2948 24.4987C17.2948 25.8117 16.9395 26.9891 16.3783 27.8309C15.8159 28.6745 15.0664 29.1573 14.2724 29.1573C13.4783 29.1573 12.7289 28.6745 12.1665 27.8309C11.6053 26.9891 11.25 25.8117 11.25 24.4987C11.25 23.1857 11.6053 22.0083 12.1665 21.1665C12.7289 20.3229 13.4783 19.8401 14.2724 19.8401C15.0664 19.8401 15.8159 20.3229 16.3783 21.1665C16.9395 22.0083 17.2948 23.1857 17.2948 24.4987Z" stroke="black" stroke-width="0.5"/>
<ellipse cx="14.8859" cy="22.4533" rx="1.84072" ry="2.4543" fill="#EDD9D4"/>
<path d="M16.4766 22.4533C16.4766 23.0822 16.2851 23.6419 15.9875 24.0388C15.6899 24.4356 15.2979 24.6576 14.8859 24.6576C14.4739 24.6576 14.0819 24.4356 13.7843 24.0388C13.4867 23.6419 13.2952 23.0822 13.2952 22.4533C13.2952 21.8244 13.4867 21.2647 13.7843 20.8679C14.0819 20.4711 14.4739 20.249 14.8859 20.249C15.2979 20.249 15.6899 20.4711 15.9875 20.8679C16.2851 21.2647 16.4766 21.8244 16.4766 22.4533Z" stroke="black" stroke-width="0.5"/>
<circle cx="24.5" cy="24.5" r="24.5" fill="#278EFF"/>
<circle cx="17" cy="27.5" r="6" fill="black"/>
<path d="M11.5 27L15.227 16.1918C15.786 14.5705 17.9021 14.1825 19 15.5V15.5" stroke="black"/>
<path d="M37.5 27L33.7349 15.7047C33.1959 14.0878 31.0911 13.6906 30 15V15" stroke="black"/>
<path d="M22.5 27.4999C22.5 27.4999 22.9883 26.5 24.5 26.5C26 26.5 27 27.5 27 27.5" stroke="black"/>
<circle cx="32" cy="27.5" r="6" fill="black"/>
<path d="M37.5 27.5H39M11 27.5H10" stroke="black"/>
</svg>
